<?xml version="1.0" standalone="no"?>
<svg xmlns="http://www.w3.org/2000/svg" xmlns:xlink="http://www.w3.org/1999/xlink" width="529pt" height="404pt" viewBox="0.00 0.00 528.59 404.00">
<g id="graph0" class="graph" transform="translate(4,400) scale(1)" data-name="ProcessFlow">

<polygon fill="white" stroke="none" points="-4,4 -4,-400 524.59,-400 524.59,4 -4,4"/>
<!-- Start -->
<g id="node1" class="node" pointer-events="visible" data-name="Start">

<ellipse fill="lightblue" stroke="black" cx="51.54" cy="-378" rx="29.05" ry="18"/>
<text text-anchor="middle" x="51.54" y="-373.8" font-family="Times,serif" font-size="14.00">Start</text>
</g>
<!-- CapturePackets -->
<g id="node3" class="node" pointer-events="visible" data-name="CapturePackets">

<polygon fill="lightgreen" stroke="black" points="103.12,-324 -0.04,-324 -0.04,-288 103.12,-288 103.12,-324"/>
<text text-anchor="middle" x="51.54" y="-301.8" font-family="Times,serif" font-size="14.00">CapturePackets</text>
</g>
<!-- Start&#45;&gt;CapturePackets -->
<g id="edge1" class="edge" data-name="Start-&gt;CapturePackets">

<path fill="none" stroke="blue" d="M51.54,-359.7C51.54,-352.41 51.54,-343.73 51.54,-335.54"/>
<polygon fill="blue" stroke="blue" points="55.04,-335.62 51.54,-325.62 48.04,-335.62 55.04,-335.62"/>
</g>
<!-- End -->
<g id="node2" class="node" pointer-events="visible" data-name="End">

<ellipse fill="lightblue" stroke="black" cx="465.54" cy="-18" rx="27" ry="18"/>
<text text-anchor="middle" x="465.54" y="-13.8" font-family="Times,serif" font-size="14.00">End</text>
</g>
<!-- ExportDissections -->
<g id="node4" class="node" pointer-events="visible" data-name="ExportDissections">

<polygon fill="lightgreen" stroke="black" points="239.7,-324 121.39,-324 121.39,-288 239.7,-288 239.7,-324"/>
<text text-anchor="middle" x="180.54" y="-301.8" font-family="Times,serif" font-size="14.00">ExportDissections</text>
</g>
<!-- CapturePackets&#45;&gt;ExportDissections -->
<g id="edge2" class="edge" data-name="CapturePackets-&gt;ExportDissections">

<path fill="none" stroke="blue" d="M103.44,-306C105.45,-306 107.45,-306 109.45,-306"/>
<polygon fill="blue" stroke="blue" points="109.4,-309.5 119.4,-306 109.4,-302.5 109.4,-309.5"/>
</g>
<!-- ImportToRosettaStone -->
<g id="node5" class="node" pointer-events="visible" data-name="ImportToRosettaStone">

<polygon fill="lightgreen" stroke="black" points="252.08,-252 109,-252 109,-216 252.08,-216 252.08,-252"/>
<text text-anchor="middle" x="180.54" y="-229.8" font-family="Times,serif" font-size="14.00">ImportToRosettaStone</text>
</g>
<!-- ExportDissections&#45;&gt;ImportToRosettaStone -->
<g id="edge3" class="edge" data-name="ExportDissections-&gt;ImportToRosettaStone">

<path fill="none" stroke="blue" d="M180.54,-287.7C180.54,-280.41 180.54,-271.73 180.54,-263.54"/>
<polygon fill="blue" stroke="blue" points="184.04,-263.62 180.54,-253.62 177.04,-263.62 184.04,-263.62"/>
</g>
<!-- AnalyzeFormats -->
<g id="node6" class="node" pointer-events="visible" data-name="AnalyzeFormats">

<polygon fill="lightgreen" stroke="black" points="378.57,-252 270.51,-252 270.51,-216 378.57,-216 378.57,-252"/>
<text text-anchor="middle" x="324.54" y="-229.8" font-family="Times,serif" font-size="14.00">AnalyzeFormats</text>
</g>
<!-- ImportToRosettaStone&#45;&gt;AnalyzeFormats -->
<g id="edge4" class="edge" data-name="ImportToRosettaStone-&gt;AnalyzeFormats">

<path fill="none" stroke="blue" d="M252.54,-234C254.66,-234 256.79,-234 258.91,-234"/>
<polygon fill="blue" stroke="blue" points="258.75,-237.5 268.75,-234 258.75,-230.5 258.75,-237.5"/>
</g>
<!-- GenerateComparison -->
<g id="node7" class="node" pointer-events="visible" data-name="GenerateComparison">

<polygon fill="lightgreen" stroke="black" points="392,-180 257.08,-180 257.08,-144 392,-144 392,-180"/>
<text text-anchor="middle" x="324.54" y="-157.8" font-family="Times,serif" font-size="14.00">GenerateComparison</text>
</g>
<!-- AnalyzeFormats&#45;&gt;GenerateComparison -->
<g id="edge5" class="edge" data-name="AnalyzeFormats-&gt;GenerateComparison">

<path fill="none" stroke="blue" d="M324.54,-215.7C324.54,-208.41 324.54,-199.73 324.54,-191.54"/>
<polygon fill="blue" stroke="blue" points="328.04,-191.62 324.54,-181.62 321.04,-191.62 328.04,-191.62"/>
</g>
<!-- VisualizeResults -->
<g id="node8" class="node" pointer-events="visible" data-name="VisualizeResults">

<polygon fill="lightgreen" stroke="black" points="520.64,-180 410.44,-180 410.44,-144 520.64,-144 520.64,-180"/>
<text text-anchor="middle" x="465.54" y="-157.8" font-family="Times,serif" font-size="14.00">VisualizeResults</text>
</g>
<!-- GenerateComparison&#45;&gt;VisualizeResults -->
<g id="edge6" class="edge" data-name="GenerateComparison-&gt;VisualizeResults">

<path fill="none" stroke="blue" d="M392.29,-162C394.41,-162 396.54,-162 398.66,-162"/>
<polygon fill="blue" stroke="blue" points="398.52,-165.5 408.52,-162 398.52,-158.5 398.52,-165.5"/>
</g>
<!-- DisplayInGUI -->
<g id="node9" class="node" pointer-events="visible" data-name="DisplayInGUI">

<polygon fill="lightgreen" stroke="black" points="513.64,-108 417.44,-108 417.44,-72 513.64,-72 513.64,-108"/>
<text text-anchor="middle" x="465.54" y="-85.8" font-family="Times,serif" font-size="14.00">DisplayInGUI</text>
</g>
<!-- VisualizeResults&#45;&gt;DisplayInGUI -->
<g id="edge7" class="edge" data-name="VisualizeResults-&gt;DisplayInGUI">

<path fill="none" stroke="blue" d="M465.54,-143.7C465.54,-136.41 465.54,-127.73 465.54,-119.54"/>
<polygon fill="blue" stroke="blue" points="469.04,-119.62 465.54,-109.62 462.04,-119.62 469.04,-119.62"/>
</g>
<!-- DisplayInGUI&#45;&gt;End -->
<g id="edge8" class="edge" data-name="DisplayInGUI-&gt;End">

<path fill="none" stroke="blue" d="M465.54,-71.7C465.54,-64.41 465.54,-55.73 465.54,-47.54"/>
<polygon fill="blue" stroke="blue" points="469.04,-47.62 465.54,-37.62 462.04,-47.62 469.04,-47.62"/>
</g>
</g>
</svg>